# xmcd
#
# Track frame offsets:
#	150
#	16735
#	27685
#	43839
#	56874
#	69566
#	85687
#	98001
#	112543
#	129124
#	146487
#	159107
#	173143
#	189518
#	203102
#	227005
#	242722
#	257920
#
# Disc length: 3663 seconds
#
# Revision: 1
# Processed by: cddbd v1.4PL0 Copyright (c) Steve Scherf et al.
# Submitted via: audiograbber 1.80.04
#
DISCID=e50e4d12
DTITLE=George Strait  - Strait Out Of The Box Disc 3
DYEAR=1995
DGENRE=Country
TTITLE0=Baby Blue
TTITLE1=If You Aint Lovin' (You Aint Livin)
TTITLE2=Baby's Gotten Good At Goodbye
TTITLE3=Bigger Man Than Me
TTITLE4=Hollywood Squares
TTITLE5=What's Going on in Your World
TTITLE6=Ace In The Hole
TTITLE7=Love Without End, Amen
TTITLE8=Drinking Champagne
TTITLE9=I've Come To Expect It From You
TTITLE10=If I know Me
TTITLE11=You Know Me Better Than That
TTITLE12=The Chill Of An Early Fall
TTITLE13=Lovesick Blues
TTITLE14=Milk Cow Blues
TTITLE15=Gone As A Girl Can Get 
TTITLE16=So Much Like My Dad
TTITLE17=Trains Make Me Lonesome
EXTD=
EXTT0=
EXTT1=
EXTT2=
EXTT3=
EXTT4=
EXTT5=
EXTT6=
EXTT7=
EXTT8=
EXTT9=
EXTT10=
EXTT11=
EXTT12=
EXTT13=
EXTT14=
EXTT15=
EXTT16=
EXTT17=
PLAYORDER=
